<svg width="96" height="23" viewBox="0 0 96 23" xmlns="http://www.w3.org/2000/svg" xmlns:xlink="http://www.w3.org/1999/xlink"><title>Blooks_logo</title><defs><path d="M19 1.004C19 .45 19.45 0 19.998 0H31.57c.55 0 .998.454.998 1.004v17.954c0 .554-.452 1.004-.998 1.004H19.998c-.55 0-.998-.455-.998-1.004V1.004z" id="a"/><mask id="c" x="0" y="0" width="13.568" height="19.962" fill="#fff"><use xlink:href="#a"/></mask><path id="b" d="M0 0h13.568v19.962H0z"/><mask id="d" x="0" y="0" width="13.568" height="19.962" fill="#fff"><use xlink:href="#b"/></mask></defs><g fill="none" fill-rule="evenodd"><path d="M89.996 16.957c0-.81-.207-1.424-.622-1.84-.415-.414-1.17-.844-2.263-1.29-1.995-.757-3.43-1.644-4.305-2.66-.875-1.016-1.313-2.217-1.313-3.603 0-1.677.595-3.023 1.784-4.04C84.466 2.508 85.976 2 87.81 2c1.22 0 2.31.257 3.266.772.957.515 1.693 1.242 2.208 2.18.515.94.773 2.006.773 3.2H90.05c0-.93-.197-1.638-.594-2.126-.396-.487-.968-.73-1.716-.73-.702 0-1.248.206-1.64.62-.392.416-.588.974-.588 1.676 0 .547.218 1.04.656 1.483.437.442 1.212.9 2.324 1.374 1.942.7 3.352 1.562 4.232 2.583.88 1.02 1.32 2.32 1.32 3.897 0 1.73-.552 3.085-1.655 4.06-1.104.975-2.604 1.463-4.5 1.463-1.285 0-2.456-.264-3.513-.793-1.057-.528-1.884-1.285-2.48-2.27-.6-.984-.897-2.146-.897-3.486h4.033c0 1.15.224 1.983.67 2.502.447.52 1.176.78 2.188.78 1.404 0 2.106-.743 2.106-2.23zM72.605 14.223L71.02 16.22v5.686H67V2h4.02v8.682l1.27-2.147L75.997 2h4.922l-5.7 8.75 5.796 11.156h-4.772M21.02 18.57h7.054v3.336H17V2h4.02" fill="#9A2157"/><g transform="translate(31 2)" stroke="#9A2157"><use mask="url(#c)" stroke-width="6.4" xlink:href="#a"/><use mask="url(#d)" stroke-width="6.4" xlink:href="#b"/><path d="M14 10h5" stroke-width="2" stroke-linecap="square"/></g><path d="M2.203 21.906V2h6.152c2.08 0 3.658.463 4.738 1.388 1.08.925 1.62 2.28 1.62 4.067 0 1.012-.223 1.882-.67 2.61-.447.73-1.057 1.264-1.832 1.6.894.256 1.582.77 2.065 1.54.483.77.725 1.72.725 2.85 0 1.932-.53 3.39-1.593 4.375-1.062.984-2.6 1.476-4.614 1.476h-6.59zm4.02-8.654v5.318h2.57c.72 0 1.267-.223 1.64-.67.374-.446.56-1.08.56-1.9 0-1.786-.646-2.702-1.94-2.748h-2.83zm0-2.926h2.09c1.578 0 2.367-.816 2.367-2.447 0-.903-.183-1.55-.547-1.942-.365-.392-.957-.588-1.778-.588H6.223v4.976z" fill="#9A2157"/></g></svg>